<svg width="800" height="800" viewBox="0 0 800 800" fill="none" xmlns="http://www.w3.org/2000/svg">
<path d="M256.49 218.65L255.49 781.53L777 708.23L778 145.35L256.49 218.65ZM775.21 238.77L691.63 250.52L691.8 160.31L775.38 148.56L775.21 238.77ZM775.04 332.17L691.46 343.92L691.63 253.71L775.21 242L775.04 332.17ZM774.87 425.58L691.29 437.32L691.46 347.11L775 335.37L774.87 425.58ZM774.69 519L691.11 530.7L691.28 440.52L774.86 428.77L774.69 519ZM774.52 612.4L690.94 624.1L691.11 533.89L774.69 522.15L774.52 612.4ZM604.75 449.48L604.91 359.28L688.49 347.53L688.33 437.74L604.75 449.48ZM688.32 440.93L688.15 531.11L604.57 542.86L604.74 452.68L688.32 440.93ZM604.92 356.08L605.09 265.88L688.67 254.13L688.5 344.33L604.92 356.08ZM604.57 546.08L688.15 534.34L688 624.52L604.4 636.26L604.57 546.08ZM688.67 250.96L605.09 262.71L605.26 172.5L688.84 160.76L688.67 250.96ZM518.21 461.65L518.37 371.44L602 359.69L601.84 449.9L518.21 461.65ZM601.78 453.09L601.61 543.27L518 555L518.17 464.82L601.78 453.09ZM518.38 368.24L518.55 278.04L602.13 266.29L602 356.5L518.38 368.24ZM518.03 558.24L601.61 546.49L601.44 636.7L517.86 648.44L518.03 558.24ZM602.13 263.12L518.55 274.86L518.72 184.66L602.3 172.91L602.13 263.12ZM431.69 473.81L431.86 383.6L515.41 371.85L515.25 462.06L431.69 473.81ZM515.24 465.26L515.07 555.44L431.52 567.18L431.69 477L515.24 465.26ZM431.87 380.4L432.03 290.2L515.59 278.45L515.42 368.66L431.87 380.4ZM431.51 570.4L515.07 558.66L514.9 648.87L431.35 660.61L431.51 570.4ZM515.59 275.29L432 287L432.17 196.79L515.72 185.05L515.59 275.29ZM345.15 486L345.32 395.79L428.9 384L428.73 474.21L345.15 486ZM428.73 477.45L428.56 567.63L345 579.34L345.17 489.16L428.73 477.45ZM345.33 392.59L345.49 302.39L429.07 290.64L428.91 380.85L345.33 392.59ZM344.97 582.59L428.55 570.84L428.39 661L344.8 672.75L344.97 582.59ZM429.08 287.47L345.5 299.16L345.67 208.96L429.25 197.21L429.08 287.47ZM258.43 594.7L342 583L341.83 673.21L258.25 684.96L258.43 594.7ZM258.6 501.33L342.19 489.58L342 579.76L258.42 591.51L258.6 501.33ZM258.78 407.92L342.36 396.18L342.19 486.38L258.61 498.13L258.78 407.92ZM258.95 314.52L342.53 302.78L342.36 392.98L258.78 404.73L258.95 314.52ZM259.13 221.12L342.71 209.37L342.54 299.58L259 311.33L259.13 221.12ZM258.26 688.12L341.84 676.38L341.67 766.58L258.09 778.33L258.26 688.12ZM344.8 675.96L428.38 664.21L428.21 754.42L344.63 766.17L344.8 675.96ZM431.34 663.8L514.89 652L514.73 742.2L431.17 754L431.34 663.8ZM517.85 651.64L601.43 639.89L601.27 730.1L517.69 741.85L517.85 651.64ZM604.39 639.48L688 627.71L687.84 717.92L604.26 729.67L604.39 639.48ZM774.39 705.78L690.77 717.5L690.93 627.29L774.52 615.55L774.39 705.78Z" fill="white"/>
<path d="M22.5498 91L21.5498 654.58L255.59 782L256.59 218.42L22.5498 91ZM255.14 311L217.67 290.62L217.84 200.41L255.31 220.79L255.14 311ZM254.96 404.4L217.5 384.07L217.66 293.86L255.13 314.25L254.96 404.4ZM254.79 497.81L217.32 477.43L217.49 387.22L255 407.65L254.79 497.81ZM254.62 591.18L217.15 570.8L217.32 480.62L254.79 501L254.62 591.18ZM254.44 684.58L217 664.25L217.16 574.04L254.63 594.43L254.44 684.58ZM23.1798 468.53L60.6498 488.91L60.4798 579.12L22.9998 558.74L23.1798 468.53ZM23.3498 375.16L60.8198 395.54L60.6498 485.72L23.1898 465.33L23.3498 375.16ZM23.5298 281.75L60.9998 302.14L60.8298 392.34L23.3598 372L23.5298 281.75ZM23.6998 188.35L61.1698 208.73L60.9998 298.94L23.5298 278.56L23.6998 188.35ZM216.17 383.35L178.7 363L178.87 272.79L216.34 293.17L216.17 383.35ZM216 476.75L178.53 456.37L178.7 366.16L216.16 386.55L216 476.75ZM215.82 570.13L178.35 549.75L178.52 459.57L216 480L215.82 570.13ZM62.1498 396.26L99.6198 416.64L99.4498 506.82L61.9998 486.44L62.1498 396.26ZM62.3198 302.86L99.7898 323.24L99.6198 413.45L62.1598 393.07L62.3198 302.86ZM177.2 455.65L139.74 435.27L139.91 345.07L177.37 365.44L177.2 455.65ZM138.42 434.55L101 414.17L101.17 323.96L138.63 344.34L138.42 434.55ZM100.94 417.36L138.41 437.75L138.24 527.93L100.78 507.54L100.94 417.36ZM139.74 438.47L177.2 458.84L177 549L139.54 528.63L139.74 438.47ZM177.37 362.25L139.92 341.87L140.09 251.66L177.54 272L177.37 362.25ZM138.59 341.15L101.12 320.77L101.29 230.56L138.76 250.94L138.59 341.15ZM99.7998 320L62.3298 299.66L62.4998 209.45L99.9998 229.84L99.7998 320ZM61.9998 489.63L99.4398 510L99.2798 600.2L61.8098 579.84L61.9998 489.63ZM100.79 510.74L138.26 531.12L138.09 621.33L100.6 601L100.79 510.74ZM139.59 531.84L177 552.22L176.83 642.43L139.4 622.05L139.59 531.84ZM178.37 552.94L215.84 573.32L215.67 663.53L178.2 643.15L178.37 552.94ZM216.37 289.94L178.9 269.56L179.07 179.35L216.54 199.73L216.37 289.94ZM177.58 268.83L140.12 248.46L140.29 158.25L177.75 178.63L177.58 268.83ZM138.79 247.74L101.3 227.36L101.46 137.15L138.93 157.54L138.79 247.74ZM99.9998 226.64L62.4998 206.26L62.6698 116.05L100.14 136.43L99.9998 226.64ZM23.8698 95L61.3398 115.38L61.1798 205.59L23.7098 185.16L23.8698 95ZM23.0098 562L60.4798 582.39L60.3098 672.59L22.8398 652.14L23.0098 562ZM61.7998 583L99.2698 603.38L99.0998 693.59L61.6298 673.24L61.7998 583ZM100.6 604.1L138.06 624.48L137.9 714.69L100.43 694.31L100.6 604.1ZM139.39 625.2L176.85 645.58L176.68 735.79L139.22 715.41L139.39 625.2ZM178.18 646.3L215.64 666.68L215.48 756.89L178 736.55L178.18 646.3ZM254.27 778L216.8 757.66L216.97 667.45L254.44 687.83L254.27 778Z" fill="white"/>
<path d="M544.41 18.0498L22.23 91.4298L256.32 218.77L778.49 145.38L544.41 18.0498ZM774.21 145.05L690.63 156.8L653.16 136.41L736.74 124.67L774.21 145.05ZM651.83 135.69L614.36 115.31L697.94 103.56L735.41 124L651.83 135.69ZM398.21 118.26L314.66 130L277.19 109.62L360.74 97.8798L398.21 118.26ZM363.7 97.4598L447.28 85.7098L484.75 106.1L401.17 117.84L363.7 97.4598ZM399.54 119L437 139.36L353.44 151.1L316 130.72L399.54 119ZM402.54 118.59L486.12 106.84L523.57 127.22L440 138.94L402.54 118.59ZM489 106.4L572.58 94.6598L610.07 115L526.49 126.75L489 106.4ZM487.67 105.68L450.24 85.2998L533.82 73.5498L571.29 93.9298L487.67 105.68ZM448.88 84.5798L411.45 64.1998L495 52.4498L532.5 72.8298L448.88 84.5798ZM446 84.9998L362.37 96.7398L324.91 76.3598L408.49 64.6098L446 84.9998ZM359.41 97.1598L275.86 108.9L238.39 88.5198L322 76.7698L359.41 97.1598ZM272.9 109.31L189.32 121.06L151.85 100.68L235.43 88.9298L272.9 109.31ZM274.23 110.04L311.7 130.42L228.12 142.17L190.65 121.78L274.23 110.04ZM313 131.14L350.46 151.52L266.9 163.26L229.44 142.89L313 131.14ZM351.79 152.24L389.26 172.62L305.67 184.37L268.23 164L351.79 152.24ZM354.79 151.82L438.34 140.08L475.81 160.46L392.24 172.2L354.79 151.82ZM441.3 139.66L524.88 127.92L562.35 148.3L478.77 160.05L441.3 139.66ZM527.84 127.5L611.42 115.75L648.89 136.14L565.31 147.88L527.84 127.5ZM613 114.62L575.58 94.2398L659.16 82.4898L696.62 102.87L613 114.62ZM574.21 93.5198L536.78 73.1398L620.36 61.3898L657.83 81.7698L574.21 93.5198ZM535.42 72.4198L498 51.9998L581.58 40.2598L619 60.6698L535.42 72.4198ZM542.73 19.1798L580.2 39.5598L496.66 51.3098L459.19 30.9298L542.73 19.1798ZM456.23 31.3398L493.7 51.7298L410.12 63.4698L372.65 43.0898L456.23 31.3398ZM369.69 43.5098L407.16 63.8898L323.58 75.6398L286.11 55.2498L369.69 43.5098ZM283.15 55.6698L320.62 76.0498L237.07 87.7998L199.6 67.4098L283.15 55.6698ZM196.64 67.8298L234.11 88.2098L150.53 99.9998L113.06 79.5698L196.64 67.8298ZM110.1 79.9998L147.57 100.38L64 112.12L26.52 91.7398L110.1 79.9998ZM148.89 101.11L186.36 121.49L102.78 133.23L65.31 112.84L148.89 101.11ZM187.69 122.21L225.16 142.59L141.57 154.34L104.11 134L187.69 122.21ZM226.48 143.31L263.94 163.69L180.36 175.44L142.9 155.05L226.48 143.31ZM265.27 164.41L302.73 184.79L219.15 196.54L181.69 176.16L265.27 164.41ZM258 217.63L220.53 197.25L304.11 185.5L341.58 205.89L258 217.63ZM344.54 205.47L307 185.09L390.58 173.34L428.05 193.73L344.54 205.47ZM431 193.31L393.53 172.93L477.09 161.18L514.55 181.57L431 193.31ZM517.51 181.15L480.05 160.77L563.66 149L601.12 169.38L517.51 181.15ZM604.08 169L566.62 148.62L650.2 136.87L687.66 157.25L604.08 169Z" fill="white"/>
</svg>
